<?xml version="1.0" encoding="UTF-8" standalone="no"?>
<svg
   version="1.0"
   width="650px"
   height="650px"
   viewBox="0 0 650 650"
   preserveAspectRatio="xMidYMid meet"
   id="svg18"
   sodipodi:docname="Declassified.svg"
   inkscape:version="1.2.2 (732a01da63, 2022-12-09)"
   xmlns:inkscape="http://www.inkscape.org/namespaces/inkscape"
   xmlns:sodipodi="http://sodipodi.sourceforge.net/DTD/sodipodi-0.dtd"
   xmlns="http://www.w3.org/2000/svg"
   xmlns:svg="http://www.w3.org/2000/svg">
  <defs
     id="defs22" />
  <sodipodi:namedview
     id="namedview20"
     pagecolor="#ffffff"
     bordercolor="#000000"
     borderopacity="0.25"
     inkscape:showpageshadow="2"
     inkscape:pageopacity="0.0"
     inkscape:pagecheckerboard="0"
     inkscape:deskcolor="#d1d1d1"
     showgrid="false"
     inkscape:zoom="1.2707692"
     inkscape:cx="325"
     inkscape:cy="325.39346"
     inkscape:window-width="1920"
     inkscape:window-height="1009"
     inkscape:window-x="-8"
     inkscape:window-y="-8"
     inkscape:window-maximized="1"
     inkscape:current-layer="svg18" />
  <g
     fill="#000000"
     id="g8">
    <path
       d="M180.3 592.5 c-36.2 -6.5 -64.7 -31.5 -75.6 -66 -4.7 -14.9 -4.8 -18.5 -4.5 -107 l0.4 -83 2.3 -8.5 c5.7 -20.9 17.1 -38.6 32.8 -51.1 14.9 -11.8 27 -16.9 45.8 -19.3 21.4 -2.7 31.9 -3 113 -3 l80 -0.1 0.3 -43 c0.2 -41.6 0.1 -43.1 -1.8 -46.3 -3.7 -6.1 -4.8 -6.2 -47.6 -6.2 -33.2 0 -39.1 0.2 -41.9 1.6 -6.2 2.9 -6.4 3.8 -6.7 30 l-0.3 23.8 -12.5 3.2 c-6.9 1.8 -29.2 7.5 -49.6 12.8 -20.3 5.3 -38.9 9.6 -41.2 9.6 l-4.2 0 0 -56.2 c0 -53.1 0.1 -56.8 2 -64.8 6 -25 24 -47.2 47.3 -58.5 17.7 -8.5 11.2 -8 107.7 -8 l85.5 0 8.5 2.9 c29.8 10 50 30.8 59.2 60.9 2.2 7 2.2 8.7 2.8 74.6 l0.5 67.4 9 3.6 c28.2 11.4 49.1 35.1 57.3 64.8 l2.7 9.8 0.3 82.5 c0.3 89.4 0.2 93.3 -4.9 108.4 -4 12.1 -8.7 20.7 -16.6 30.6 -14.6 18.2 -35.4 30.4 -59.2 34.5 -11.7 2.1 -279.5 2.1 -290.8 0z m286.7 -34.6 c8.4 -2.3 20.4 -8.4 26.7 -13.5 9.9 -8.1 18.9 -22.6 22.4 -36.3 1.9 -7.2 2 -11.2 2.1 -83.6 0.1 -85.5 0.3 -82.4 -7.5 -98.5 -3.3 -6.8 -5.8 -10.2 -12.7 -17 -12 -12.1 -22.4 -17.2 -41.2 -20.3 l-7.3 -1.3 -0.6 -75.9 c-0.6 -83.4 -0.3 -79.8 -6.8 -93 -8.2 -16.4 -23.5 -28.1 -41.8 -32 -10.6 -2.3 -139.1 -2.2 -150.1 0.1 -20.7 4.3 -37.7 19.3 -44.9 39.9 l-2.8 8 -0.3 32.8 c-0.2 18 -0.2 32.7 0 32.7 0.2 -0.1 9.3 -2.4 20.3 -5.3 l20 -5.3 0.6 -16.4 c0.7 -19.7 2.2 -24.9 10 -33.4 5.7 -6.3 11.1 -9.7 18.8 -12 8.2 -2.4 99 -2.4 107.2 0 11.2 3.3 20.7 11.6 25.7 22.2 l2.7 5.7 0.3 66.3 0.3 66.4 -102.8 -0.2 c-109.6 -0.3 -110.5 -0.2 -125 4.6 -21.7 7.2 -38.6 25.7 -44.4 48.3 -1.8 6.9 -2 12.3 -2.5 56.6 -0.3 27 -0.1 62.5 0.4 79 0.9 28.4 1.1 30.4 3.5 37.3 7.6 21.4 24.4 37.2 46.7 43.9 l7.5 2.2 134 0 c132.4 0.1 134.1 0.1 141.5 -2z"
       id="path2" />
    <path
       d="M309.8 517.9 c-41 -2.8 -78.9 -17.5 -103.7 -40.5 -12.4 -11.5 -21.6 -26.9 -24.7 -41.2 -2 -9.8 -1.8 -25.3 0.6 -34.6 6.3 -24.8 26.9 -46.9 57.5 -61.7 26.8 -12.9 55.4 -18.9 89.9 -18.9 52.8 0 100 17.2 127.4 46.4 28.6 30.6 28.1 75.9 -1.3 106.1 -25 25.7 -64.3 41.6 -110.2 44.5 -17.2 1.1 -18.3 1.1 -35.5 -0.1z m45.2 -30.9 c21.8 -3.6 42.6 -12.4 57.6 -24.4 14.3 -11.5 23.3 -26.3 24.2 -40 2 -31 -31.4 -60.1 -80.1 -69.8 -14.5 -2.8 -38.5 -3.1 -52.4 -0.5 -44.7 8.4 -77.1 32.6 -82.4 61.7 -1.5 8.4 -0.1 15.3 5.2 26 13.1 26.1 49.1 45.6 90.4 49 11.7 0.9 23.2 0.3 37.5 -2z"
       id="path4" />
    <path
       d="M317.7 456 c-9.7 -2.5 -17.7 -9.2 -22.4 -18.8 -2.6 -5.2 -2.8 -6.6 -2.8 -17.2 0 -10.5 0.2 -12 2.7 -17 3.6 -7.3 9.4 -13.2 16.5 -16.6 5.4 -2.7 6.7 -2.9 17.3 -2.9 10.7 0 11.9 0.2 17.4 2.9 7.3 3.6 12.7 9 16.3 16.4 2.6 5.2 2.8 6.6 2.8 17.2 0 10.6 -0.2 12 -2.8 17.2 -3.6 7.4 -9.6 13.4 -16.5 16.6 -4.5 2 -7.4 2.6 -15.1 2.8 -5.3 0.2 -11.3 -0.1 -13.4 -0.6z"
       id="path6" />
  </g>
</svg>
