<?xml version="1.0" encoding="UTF-8" standalone="no"?>
<svg
   version="1.0"
   width="472px"
   height="472px"
   viewBox="0 0 472 472"
   preserveAspectRatio="xMidYMid meet"
   id="svg16"
   sodipodi:docname="mualo.svg"
   inkscape:version="1.2.2 (732a01da63, 2022-12-09)"
   xmlns:inkscape="http://www.inkscape.org/namespaces/inkscape"
   xmlns:sodipodi="http://sodipodi.sourceforge.net/DTD/sodipodi-0.dtd"
   xmlns="http://www.w3.org/2000/svg"
   xmlns:svg="http://www.w3.org/2000/svg">
  <defs
     id="defs20" />
  <sodipodi:namedview
     id="namedview18"
     pagecolor="#ffffff"
     bordercolor="#000000"
     borderopacity="0.25"
     inkscape:showpageshadow="2"
     inkscape:pageopacity="0.0"
     inkscape:pagecheckerboard="0"
     inkscape:deskcolor="#d1d1d1"
     showgrid="false"
     inkscape:zoom="1.75"
     inkscape:cx="236"
     inkscape:cy="236.28571"
     inkscape:window-width="1920"
     inkscape:window-height="1009"
     inkscape:window-x="-8"
     inkscape:window-y="-8"
     inkscape:window-maximized="1"
     inkscape:current-layer="svg16" />
  <g
     fill="#000000"
     id="g8"
     transform="matrix(1,0,0,1.0066834,0,-2.1453634)">
    <path
       d="M 122,285 V 249 H 104.5 87 v 6.5 6.5 h -3.2 c -2.2,0 -9.2,-3.5 -23.5,-11.7 L 40,238.6 V 235 231.5 L 59.8,220 C 73,212.3 80.7,208.4 83.3,208.2 l 3.7,-0.4 v 7.1 7.1 h 17.5 17.5 v -36 -36 h 41.5 41.5 v 13.5 13.5 h -28 -28 v 58.5 58.5 h 28 28 V 307.5 321 H 163.5 122 Z"
       id="path2" />
    <path
       d="M 267,307.5 V 294 h 28 28 V 235.5 177 H 295 267 V 163.5 150 h 41.5 41.5 v 36 36 h 17.5 17.5 v -7 -7 h 3.2 c 2.2,0 9.2,3.5 23.5,11.7 l 20.3,11.7 v 3.6 3.5 L 412.3,250 c -13.3,7.7 -21,11.6 -23.5,11.8 l -3.8,0.4 V 255.6 249 H 367.5 350 v 36 36 H 308.5 267 Z"
       id="path4" />
    <path
       d="m 220.2,271.9 c -7.5,-3 -16.2,-11.3 -19.8,-19.1 -2.7,-5.8 -2.9,-7.2 -2.9,-17.8 0,-11 0.2,-11.9 3.2,-18.1 3.9,-7.9 10.2,-14 18.1,-17.7 5.2,-2.5 6.8,-2.7 17.7,-2.7 11.1,0 12.5,0.2 18.2,2.9 7.6,3.5 14.4,10.4 18.1,18.4 2.4,5.1 2.7,6.8 2.7,17.2 0,10.8 -0.2,11.9 -3.1,18 -3.9,8.2 -9.9,14.4 -17.2,17.8 -5,2.4 -7.1,2.7 -17.7,2.9 -10.1,0.2 -12.8,0 -17.3,-1.8 z M 245,248.6 c 5.1,-3.4 9.2,-11.5 7.9,-15.8 -1.5,-5.5 -5.2,-9.8 -10.6,-12.4 -4.7,-2.3 -5.6,-2.5 -8.8,-1.4 -7.4,2.4 -13.5,9.8 -13.5,16.3 0,4.8 5.1,12 10.3,14.7 5.1,2.5 9.4,2.1 14.7,-1.4 z"
       id="path6" />
  </g>
  <g
     fill="#ffffff"
     id="g14" />
</svg>
