<?xml version="1.0" encoding="UTF-8" standalone="no"?>
<svg
   version="1.0"
   width="550px"
   height="550px"
   viewBox="0 0 550 550"
   preserveAspectRatio="xMidYMid meet"
   id="svg22"
   sodipodi:docname="NonExist.svg"
   inkscape:version="1.2.2 (732a01da63, 2022-12-09)"
   xmlns:inkscape="http://www.inkscape.org/namespaces/inkscape"
   xmlns:sodipodi="http://sodipodi.sourceforge.net/DTD/sodipodi-0.dtd"
   xmlns="http://www.w3.org/2000/svg"
   xmlns:svg="http://www.w3.org/2000/svg">
  <defs
     id="defs26" />
  <sodipodi:namedview
     id="namedview24"
     pagecolor="#ffffff"
     bordercolor="#000000"
     borderopacity="0.25"
     inkscape:showpageshadow="2"
     inkscape:pageopacity="0.0"
     inkscape:pagecheckerboard="0"
     inkscape:deskcolor="#d1d1d1"
     showgrid="false"
     inkscape:zoom="1.5018182"
     inkscape:cx="275"
     inkscape:cy="275.33293"
     inkscape:window-width="1920"
     inkscape:window-height="1009"
     inkscape:window-x="-8"
     inkscape:window-y="-8"
     inkscape:window-maximized="1"
     inkscape:current-layer="svg22" />
  <g
     fill="#000000"
     id="g8"
     inkscape:transform-center-x="2.6634383">
    <path
       d="m 253.09964,492.4 c -1.39357,-0.2 -6.47014,-0.9 -11.44717,-1.5 -10.65084,-1.4 -28.56814,-5.7 -40.31393,-9.7 C 157.3416,465.9 119.3171,436.3 92.540686,396.1 76.216031,371.7 63.176215,336.3 59.393673,306 c -1.59265,-13.1 -1.891271,-45.4 -0.398163,-58.1 4.479326,-39 20.803982,-78.5 45.29096,-109.4 11.34763,-14.3 28.66769,-30.7 43.30016,-41.2 26.67687,-18.9 54.84686,-30.6 89.08882,-36.9 13.53751,-2.5 53.25421,-3.1 68.28483,-1 48.37672,6.8 88.98928,27 122.93262,61 32.94793,33.1 52.65697,71.7 60.62021,118.6 2.58806,14.8 3.08576,46.5 1.09495,63.9 -8.36141,72.3 -52.25881,135 -117.65697,167.9 -20.30628,10.2 -45.68912,17.8 -69.08116,20.7 -11.049,1.3 -42.60337,1.9 -49.77029,0.9 z m 48.27718,-31.9 c 48.0781,-8 92.07504,-34.4 120.64318,-72.4 2.38898,-3.1 4.28025,-5.9 4.28025,-6.2 0,-0.4 -7.26646,-4.9 -16.12557,-10 -8.95866,-5.1 -17.02144,-9.7 -17.91731,-10.3 -1.39357,-0.9 -2.09035,-0.6 -3.28484,1.2 -1.09494,1.5 -2.58805,2.2 -4.77795,2.2 -3.08575,0 -3.48392,-0.6 -11.14854,-14 -4.28025,-7.7 -8.16233,-14 -8.46095,-14 -0.29862,0 -1.39357,1.4 -2.38897,3.1 -2.88668,4.9 -18.41501,20.2 -24.98469,24.6 -21.89893,14.7 -46.28637,20.8 -74.15773,18.3 -30.55896,-2.6 -57.23583,-17.3 -75.15314,-41.2 l -4.28024,-5.7 -8.26187,14.4 c -7.96325,13.9 -8.46095,14.5 -11.44717,14.5 -2.09035,0 -3.58346,-0.7 -4.57887,-2.1 -1.39356,-2.1 -1.59264,-2 -19.01225,8.1 -9.65543,5.6 -17.61868,10.6 -17.61868,11 0,3.9 26.4778,32 39.31853,41.7 27.87136,21 60.02297,34 95.06125,38.3 9.75498,1.2 32.94794,0.4 44.29556,-1.5 z m -172.7029,-118.8 13.43797,-7.8 -0.29862,-4.9 -0.39816,-5 h 17.61868 c 16.4242,0 17.61869,-0.1 16.9219,-1.7 -8.36141,-19.9 -11.34762,-43 -8.36141,-65 1.49311,-11.2 7.36601,-28 13.03982,-37.7 17.02144,-28.7 44.3951,-46.9 77.54211,-51.7 4.57887,-0.6 8.46095,-1.3 8.66003,-1.4 0.19908,-0.2 -3.08576,-6.2 -7.16692,-13.5 -5.37519,-9.4 -7.56509,-14.2 -7.56509,-16.6 0,-3.3 0.0995,-3.4 3.98163,-3.4 h 3.98162 V 110.7 88.3 l -9.15773,1.4 c -49.17305,7.2 -91.07963,31.4 -122.23583,70.4 -27.4732,34.4 -42.30475,79.1 -40.51302,121.8 0.895865,21.9 5.07657,40.6 13.83614,62.8 l 3.98162,10.2 4.67841,-2.7 c 2.58806,-1.5 10.65084,-6.2 18.01685,-10.5 z m 161.75344,10.6 c 20.70444,-4.6 40.81164,-19.8 52.15926,-39 4.37979,-7.6 8.75957,-20.9 10.0536,-30.6 0.99541,-6.9 0.89587,-10.1 -0.39816,-17.6 -5.67381,-32.6 -28.16999,-57.5 -60.32159,-66.6 -9.65544,-2.8 -26.07964,-2.6 -36.23277,0.3 -12.84074,3.7 -24.48699,10.3 -34.04288,19.4 -13.83614,13.2 -21.10261,26.4 -24.88515,44.8 -7.06738,35.4 17.61869,75 54.54824,87.4 13.7366,4.6 24.68606,5.2 39.11945,1.9 z m 155.78101,-6 c 11.24808,-27.2 16.52373,-58.1 14.13476,-84.1 -5.77336,-63 -40.7121,-118 -94.86217,-149.2 -20.6049,-11.9 -49.07351,-21.5 -69.77795,-23.6 l -6.76876,-0.7 v 22.2 22.1 h 4.47933 c 4.28024,0 4.47932,0.1 4.47932,2.9 0,1.8 -2.98622,8.2 -7.96324,16.8 l -7.86371,13.8 5.17611,0.8 c 27.87136,4.2 47.97856,14.1 65.19908,32.1 4.28024,4.5 9.75498,11 12.04441,14.5 19.60949,29 23.2925,71.1 9.25727,105.7 l -2.09035,5.1 12.64165,-0.2 c 6.96785,-0.1 15.03063,0 17.91731,0.3 l 5.37519,0.5 -0.39816,4.4 -0.29862,4.3 16.92189,9.9 c 9.35682,5.5 17.41961,10 18.11639,10 0.59724,0.1 2.58806,-3.4 4.28025,-7.6 z"
       id="path2"
       style="stroke-width:0.9977" />
  </g>
</svg>
