<?xml version="1.0" encoding="UTF-8" standalone="no"?>
<svg
   version="1.0"
   width="2400.000000pt"
   height="2400.000000pt"
   viewBox="0 0 2400.000000 2400.000000"
   preserveAspectRatio="xMidYMid meet"
   id="svg63"
   sodipodi:docname="Surreality Site-ZH-10000 Header Logo.svg"
   inkscape:version="1.2.2 (732a01da63, 2022-12-09)"
   xmlns:inkscape="http://www.inkscape.org/namespaces/inkscape"
   xmlns:sodipodi="http://sodipodi.sourceforge.net/DTD/sodipodi-0.dtd"
   xmlns="http://www.w3.org/2000/svg"
   xmlns:svg="http://www.w3.org/2000/svg">
  <defs
     id="defs67">
    <inkscape:path-effect
       effect="spiro"
       id="path-effect1376"
       is_visible="true"
       lpeversion="1" />
    <inkscape:path-effect
       effect="spiro"
       id="path-effect1372"
       is_visible="true"
       lpeversion="1" />
    <inkscape:path-effect
       effect="spiro"
       id="path-effect1368"
       is_visible="true"
       lpeversion="1" />
    <inkscape:path-effect
       effect="spiro"
       id="path-effect1364"
       is_visible="true"
       lpeversion="1" />
    <inkscape:path-effect
       effect="spiro"
       id="path-effect1360"
       is_visible="true"
       lpeversion="1" />
    <rect
       x="16.396679"
       y="24.595018"
       width="3189.1541"
       height="3164.559"
       id="rect188" />
    <rect
       x="1153.6232"
       y="1136.2319"
       width="834.78261"
       height="840.57971"
       id="rect118" />
    <rect
       x="1113.0435"
       y="968.11594"
       width="1002.8986"
       height="1223.1884"
       id="rect112" />
  </defs>
  <sodipodi:namedview
     id="namedview65"
     pagecolor="#ffffff"
     bordercolor="#666666"
     borderopacity="1.0"
     inkscape:pageshadow="2"
     inkscape:pageopacity="0.0"
     inkscape:pagecheckerboard="0"
     inkscape:document-units="pt"
     showgrid="false"
     inkscape:zoom="0.12197592"
     inkscape:cx="118.87592"
     inkscape:cy="713.25554"
     inkscape:window-width="1920"
     inkscape:window-height="1009"
     inkscape:window-x="-8"
     inkscape:window-y="-8"
     inkscape:window-maximized="1"
     inkscape:current-layer="svg63"
     inkscape:showpageshadow="2"
     inkscape:deskcolor="#d1d1d1" />
  <metadata
     id="metadata55">
Created by potrace 1.11, written by Peter Selinger 2001-2013
</metadata>
  <g
     transform="matrix(0.1,0,0,-0.1,-3.1975415,2457.5202)"
     fill="#000000"
     stroke="none"
     id="g61">
    <path
       d="m 8816,22953 c -3,-16 -73,-417 -156,-893 -82,-476 -153,-871 -157,-878 -5,-7 -73,-39 -153,-71 C 6801,20486 5406,19446 4364,18140 3284,16786 2577,15172 2325,13490 c -14,-96 -31,-186 -36,-199 -20,-49 -60,-433 -79,-765 -13,-230 -13,-808 0,-1051 12,-218 31,-422 62,-683 l 22,-184 -40,-37 c -83,-78 -194,-180 -304,-281 -63,-58 -146,-134 -185,-170 -84,-79 -99,-92 -522,-484 -183,-168 -334,-310 -337,-315 -3,-4 122,-228 277,-497 155,-269 881,-1525 1612,-2791 731,-1267 1334,-2303 1340,-2303 6,0 85,27 176,61 90,33 286,105 434,159 880,322 1096,400 1104,400 6,0 36,-22 69,-49 183,-153 632,-469 927,-653 500,-312 1151,-630 1760,-858 1454,-545 3063,-737 4605,-550 823,100 1654,308 2395,600 99,39 189,72 200,74 54,9 374,155 690,314 513,260 962,538 1433,889 l 193,143 52,-16 c 29,-9 66,-20 82,-26 47,-15 503,-157 570,-177 116,-35 650,-202 675,-211 14,-5 72,-23 130,-40 58,-18 147,-45 198,-62 51,-16 97,-28 102,-26 12,4 3232,5579 3228,5588 -3,7 -195,169 -998,838 -201,168 -373,313 -384,322 -18,18 -18,21 2,167 111,782 124,1556 41,2373 -192,1889 -916,3661 -2105,5152 -762,956 -1725,1780 -2794,2391 -335,191 -801,420 -1137,557 -46,18 -85,41 -87,49 -3,9 -96,419 -206,911 -111,492 -204,903 -206,913 -5,16 -168,17 -3234,17 H 8822 Z m 5928,-510 c 8,-27 235,-999 316,-1353 39,-173 75,-328 79,-345 7,-28 18,-34 197,-103 394,-152 864,-370 1189,-552 1060,-592 1973,-1362 2720,-2290 1164,-1447 1863,-3202 2014,-5055 33,-401 39,-1112 11,-1445 -26,-320 -75,-695 -132,-1013 l -12,-67 44,-43 c 25,-23 86,-76 135,-117 50,-41 95,-80 102,-86 6,-6 57,-49 114,-95 56,-46 145,-120 198,-164 53,-45 224,-188 381,-319 382,-320 355,-295 343,-315 -5,-9 -612,-1059 -1347,-2333 -804,-1393 -1344,-2318 -1352,-2318 -8,0 -88,22 -177,49 -89,27 -178,54 -197,59 -42,11 -449,134 -535,161 -33,11 -100,31 -150,46 -49,15 -99,31 -110,35 -11,5 -40,14 -65,20 -25,6 -54,15 -65,20 -11,5 -51,18 -90,28 -38,11 -125,37 -192,57 -121,37 -122,37 -147,19 -13,-11 -89,-71 -168,-135 -242,-196 -689,-519 -717,-519 -5,0 -50,-26 -98,-57 -467,-301 -1049,-599 -1582,-810 -902,-357 -1797,-559 -2816,-635 -223,-16 -967,-16 -1190,0 -1303,97 -2449,410 -3565,973 -578,291 -1182,679 -1635,1049 -38,32 -75,59 -82,61 -6,2 -55,42 -108,88 l -97,83 -47,-10 c -45,-10 -110,-32 -431,-152 -91,-34 -311,-115 -490,-180 -179,-65 -399,-146 -490,-179 -90,-34 -169,-61 -175,-61 -6,0 -617,1051 -1359,2336 l -1349,2336 34,30 c 19,17 108,101 199,187 91,85 194,183 230,216 36,34 108,102 160,152 52,50 119,112 149,139 30,27 71,65 92,84 68,64 261,245 288,269 14,13 56,52 92,87 l 67,64 -14,72 c -50,260 -105,734 -109,928 -1,80 -6,296 -10,480 -12,533 20,1039 100,1565 390,2571 1841,4857 4000,6300 631,423 1339,780 2020,1020 115,41 120,44 128,76 10,40 75,405 198,1114 50,286 93,530 96,543 l 5,22 h 2698 c 2562,0 2699,-1 2704,-17 z"
       id="path57" />
  </g>
  <text
     xml:space="preserve"
     transform="scale(0.75)"
     id="text110"
     style="white-space:pre;shape-inside:url(#rect112);display:inline;fill:#000000" />
  <text
     xml:space="preserve"
     transform="scale(0.75)"
     id="text116"
     style="white-space:pre;shape-inside:url(#rect118);display:inline;fill:#000000" />
  <g
     id="g313"
     transform="matrix(1.0243916,0,0,0.96023251,-36.936502,172.70317)">
    <g
       id="g307">
      <g
         id="g302"
         transform="matrix(0.94594596,0,0,0.94594595,65.26939,57.829276)">
        <g
           aria-label="♔"
           transform="matrix(195.33488,0,0,194.79221,-3170.8315,-5204.9784)"
           id="text186"
           style="white-space:pre;shape-inside:url(#rect188)">
          <path
             id="path366"
             d="m 22.090163,26.581237 c -0.1875,0.03125 -0.490545,0.780088 -0.584295,0.873838 -0.125,0.09375 -0.766003,0.0306 -0.704322,0.172277 l 0.516824,1.187099 c -0.593749,-0.21875 -1.109375,-0.328121 -1.546874,-0.328121 -0.53125,0 -0.984377,0.171874 -1.359376,0.515623 -0.46875,0.46875 -0.671877,1.09375 -0.609377,1.875 0.0625,0.718749 0.312501,1.437503 0.75,2.156252 l 0.09375,0.09375 c 0.0625,0.09375 0.09375,0.218746 0.09375,0.374996 0,0.125 0.10938,0.390627 0.328129,0.796877 l 0.04687,0.09375 c -0.125,0.15625 -0.187498,0.359375 -0.187498,0.609375 0,0.28125 0.124997,0.484374 0.374996,0.609374 -0.09375,0.125 -0.140623,0.265623 -0.140623,0.421872 0,0.375 0.184414,0.786571 0.715663,0.974071 0.53125,0.1875 1.424968,0.150927 2.518717,0.150927 1.156248,0 2.065102,0.06291 2.502602,-0.124592 0.562496,-0.21875 0.716145,-0.656656 0.684895,-1.000406 0,-0.156249 -0.04687,-0.296872 -0.140623,-0.421872 0.249999,-0.09375 0.374996,-0.296875 0.374996,-0.609374 0,-0.25 -0.04687,-0.437499 -0.140624,-0.562499 l 0.09375,-0.140627 c 0.249995,-0.375 0.35938,-0.640627 0.32813,-0.796877 0,-0.15625 0.03125,-0.281247 0.09375,-0.374996 l 0.04687,-0.09375 c 0.53125,-0.843749 0.796875,-1.656257 0.796875,-2.437506 0,-0.656249 -0.203127,-1.17187 -0.609377,-1.54687 -0.406247,-0.374998 -0.874989,-0.562497 -1.406235,-0.562499 h -8e-6 c -0.406248,0.03125 -0.921871,0.156256 -1.546866,0.375005 l 0.585734,-1.242396 c 0.07893,-0.167412 -0.648234,-0.08573 -0.773232,-0.210731 -0.09375,-0.09375 -0.396268,-0.803094 -0.614933,-0.809594 z m -0.162432,1.014465 h 0.890631 c 0.0625,0.0625 0.109374,0.09375 0.140624,0.09375 L 22.396484,28.1582 21.833982,27.689452 c 0.03125,0 0.0625,-0.03125 0.09375,-0.09375 z m -0.234373,0.281253 0.515628,0.421873 -0.468753,0.374996 z m 1.406251,0 V 28.7207 l -0.515627,-0.421872 z m -3.328129,0.984371 c 0.375,0 0.843752,0.10938 1.406251,0.32813 -0.09375,0.218749 -0.156248,0.406249 -0.187498,0.562499 -0.375,-0.375 -0.796878,-0.562499 -1.265627,-0.562499 -0.34375,0.0625 -0.624999,0.234373 -0.843749,0.515623 -0.21875,0.3125 -0.328122,0.624996 -0.328122,0.937496 0.03125,0.531249 0.343749,1.390626 0.937498,2.578124 -0.125,0.09375 -0.249996,0.171879 -0.374996,0.234379 0,-0.15625 -0.07813,-0.375001 -0.23438,-0.656251 -0.40625,-0.718749 -0.640626,-1.375001 -0.703125,-1.96875 -0.03125,-0.624999 0.125003,-1.125003 0.468752,-1.500003 0.3125,-0.312499 0.687497,-0.468748 1.124996,-0.468748 z m 5.250007,0 c 0.46875,0 0.859371,0.156249 1.171871,0.468748 0.3125,0.3125 0.468753,0.734375 0.468753,1.265625 0,0.687499 -0.234376,1.406254 -0.703126,2.156253 -0.125003,0.1875 -0.203122,0.359373 -0.234372,0.515623 -0.125,-0.03125 -0.23438,-0.09374 -0.32813,-0.187494 0.562497,-1.156249 0.828125,-2.015626 0.796875,-2.578125 0,-0.375 -0.140621,-0.70313 -0.421871,-0.984379 -0.249999,-0.249995 -0.562506,-0.359371 -0.937505,-0.328121 -0.40625,0.03125 -0.765622,0.234375 -1.078122,0.609374 -0.03125,-0.21875 -0.09375,-0.421874 -0.187498,-0.609374 0.59375,-0.21875 1.078126,-0.32813 1.453125,-0.32813 z m -2.671878,0.04688 c 0.28125,0 0.53125,0.10938 0.75,0.328129 0.156253,0.15625 0.249997,0.359375 0.281247,0.609375 0.03125,0.3125 -0.0625,0.593744 -0.281247,0.843744 -0.21875,0.21875 -0.499999,0.312504 -0.843749,0.281254 -0.249999,-0.03125 -0.453126,-0.125004 -0.609376,-0.281254 -0.187503,-0.1875 -0.296872,-0.437493 -0.328122,-0.749993 0,-0.28125 0.109372,-0.515626 0.328122,-0.703126 0.25,-0.218749 0.484376,-0.328129 0.703125,-0.328129 z m 2.531247,0.65625 c 0.25,0 0.453127,0.07813 0.609376,0.234378 0.249995,0.25 0.35938,0.562496 0.32813,0.937496 -0.03125,0.312499 -0.14063,0.703124 -0.32813,1.171873 -0.156249,-0.312499 -0.343752,-0.468748 -0.562501,-0.468748 -0.03125,-0.187499 -0.109373,-0.343756 -0.234373,-0.468756 -0.1875,-0.156244 -0.359377,-0.234369 -0.515627,-0.234369 -0.25,0.03125 -0.453119,0.156246 -0.609369,0.374996 -0.03125,0 -0.06251,-0.01562 -0.09376,-0.04687 0.15625,-0.34375 0.26563,-0.578126 0.32813,-0.703126 0.281249,-0.500002 0.640622,-0.765627 1.078121,-0.796877 z m -4.968744,9e-6 c 0.468749,0.03125 0.85937,0.359371 1.17187,0.984371 0.09375,0.156249 0.17188,0.328123 0.23438,0.515623 -0.03125,0.03125 -0.06251,0.04688 -0.09376,0.04688 -0.15625,-0.218753 -0.359369,-0.343755 -0.609369,-0.375005 v 8e-6 c -0.15625,0 -0.312503,0.0625 -0.468753,0.187502 -0.125,0.15625 -0.218747,0.328124 -0.281247,0.515624 -0.1875,0 -0.375002,0.156248 -0.562502,0.468747 -0.218753,-0.562499 -0.343754,-0.984374 -0.375004,-1.265624 0,-0.3125 0.125005,-0.593753 0.375004,-0.843753 0.15625,-0.156245 0.359377,-0.234369 0.609377,-0.234369 z m 0.609368,1.54687 c 0.15625,0 0.281254,0.07812 0.375004,0.234369 0.124995,0.1875 0.171874,0.421876 0.140624,0.703126 0.0625,-0.375 0.140622,-0.562499 0.234372,-0.562499 0.0625,0 0.125006,0.04688 0.187506,0.140627 0.125003,0.28125 0.203123,0.546877 0.234372,0.796877 -0.656249,0.125 -1.281246,0.328125 -1.874995,0.609374 -0.0625,-0.156249 -0.140631,-0.328123 -0.234381,-0.515623 0,-0.499999 0.09375,-0.750001 0.281247,-0.750001 0.1875,0 0.312497,0.156248 0.374996,0.468747 0,-0.09375 -0.01562,-0.187503 -0.04687,-0.281253 0,-0.5 0.109371,-0.781245 0.328121,-0.843744 z m 3.656251,0 c 0.218753,0 0.343754,0.234376 0.375004,0.703125 v 0.421872 c 0.124999,-0.312499 0.249996,-0.468747 0.374996,-0.468747 0.187499,0 0.281254,0.250002 0.281254,0.750001 0,0.125 -0.04687,0.249997 -0.140623,0.374997 -0.59375,-0.28125 -1.234379,-0.453124 -1.921878,-0.515624 0.09375,-0.25 0.156248,-0.500001 0.187498,-0.750001 0.0625,-0.09376 0.125006,-0.140627 0.187506,-0.140627 0.125002,0 0.203122,0.187499 0.234372,0.562499 0,-0.25 0.04687,-0.484376 0.140624,-0.703126 0.09375,-0.125003 0.187497,-0.203119 0.281247,-0.234369 z m -1.124996,0.04687 -0.281247,1.218749 h -0.140632 -0.562494 c -0.0625,-0.374999 -0.171879,-0.765624 -0.328129,-1.171873 0.15625,0.09375 0.343752,0.140618 0.562502,0.140618 0.28125,0.03125 0.53125,-0.03124 0.75,-0.187494 z m -0.459915,1.576873 c 1.040374,7.51e-4 2.068676,0.303253 3.084911,0.907501 -0.0625,0.21875 -0.140623,0.374998 -0.234373,0.468748 l -0.04687,0.04687 c -0.781249,-0.593749 -1.78125,-0.890628 -2.999999,-0.890628 -1.156249,0 -2.156251,0.281253 -3,0.843753 -0.03125,-0.125 -0.07812,-0.218754 -0.140623,-0.281254 0.812499,-0.624999 1.781251,-0.984372 2.90625,-1.078122 0.143799,-0.01135 0.287368,-0.01698 0.430709,-0.01687 z m -0.102587,0.907501 c 0.406246,0 0.593752,0.156248 0.562502,0.468748 -0.03125,0.218749 -0.218752,0.328129 -0.562502,0.328129 -0.40625,0 -0.609376,-0.10938 -0.609376,-0.328129 0.03125,-0.1875 0.09376,-0.312497 0.187505,-0.374997 0.125,-0.0625 0.265621,-0.09375 0.421871,-0.09375 z m -1.265627,0.187494 c 0.156249,0 0.218755,0.07813 0.187505,0.234378 0,0.15625 -0.03125,0.281255 -0.09375,0.375005 -0.0625,0.0625 -0.187504,0.14062 -0.375003,0.23437 -0.1875,0.09375 -0.343753,0.125001 -0.468753,0.09375 -0.1875,0.03125 -0.281247,-0.0625 -0.281247,-0.281254 0,-0.15625 0.04687,-0.281246 0.140623,-0.374996 0.03125,0 0.14063,-0.04688 0.32813,-0.140627 0.249999,-0.09376 0.437494,-0.140627 0.562494,-0.140627 z m 2.343756,0 c 0.125,0 0.312494,0.04688 0.562494,0.140627 0.15625,0.06251 0.26563,0.109377 0.32813,0.140627 0.09375,0.09375 0.140623,0.218746 0.140623,0.374996 0,0.21875 -0.09375,0.312504 -0.281247,0.281254 -0.09375,0.03125 -0.234379,-2e-6 -0.421878,-0.09375 -0.1875,-0.09375 -0.328129,-0.17187 -0.421879,-0.23437 -0.0625,-0.0625 -0.09375,-0.203131 -0.09375,-0.421881 0,-0.124999 0.06251,-0.187502 0.187506,-0.187502 z m -3.98438,0.65625 c 0.1875,0 0.281255,0.125005 0.281255,0.375005 0,0.28125 -0.109379,0.421872 -0.328129,0.421872 -0.1875,0 -0.281247,-0.124997 -0.281247,-0.374996 0.03125,-0.28125 0.140622,-0.421881 0.328121,-0.421881 z m 5.625003,0 c 0.21875,0 0.328122,0.140631 0.328122,0.421881 0.03125,0.249999 -0.0625,0.374996 -0.281247,0.374996 -0.187503,0 -0.296879,-0.140622 -0.328129,-0.421872 0,-0.25 0.09375,-0.375005 0.281254,-0.375005 z m -2.765627,0.328129 c 0.59375,0 1.171873,0.109372 1.734373,0.328121 0.374999,0.15625 0.656257,0.328132 0.843756,0.515632 0.09375,0.09375 0.140624,0.187495 0.140624,0.281245 0,0.15625 -0.06251,0.218753 -0.187506,0.187503 -0.09375,0.03125 -0.171872,-2e-6 -0.234372,-0.09375 -0.46875,-0.312499 -1.124996,-0.499999 -1.968745,-0.562498 -1.218749,-0.03125 -2.125003,0.156249 -2.718753,0.562498 -0.0625,0.09375 -0.140622,0.125002 -0.234372,0.09375 -0.09375,0 -0.156256,-0.0625 -0.187506,-0.187503 0,-0.0625 0.04687,-0.156245 0.140623,-0.281245 0.3125,-0.28125 0.734378,-0.5 1.265628,-0.65625 0.468749,-0.125 0.937501,-0.187503 1.40625,-0.187503 z M 22.302735,35.8457 c 0.499999,0 0.953127,0.04688 1.359376,0.140627 0.46875,0.15625 0.703126,0.296872 0.703126,0.421872 0,0.28125 -0.656254,0.406255 -1.968753,0.375005 -1.312499,0.03125 -1.968753,-0.09375 -1.968753,-0.375005 0,-0.15625 0.265625,-0.312498 0.796875,-0.468748 0.249999,-0.03125 0.609379,-0.0625 1.078129,-0.09375 z"
             sodipodi:nodetypes="ccscsccccsccscssscccscscccsssscsscccccccccccccsccsscccccccccssssccccccccsscccccccsccccccccccccccccccccccccccsccccscccccccccccsccccccscccccsccccccscscccsccccsccssccscscssssscsssccssccsccccccccsccscscsscscscs" />
        </g>
      </g>
    </g>
  </g>
  <g
     id="g1018"
     transform="translate(-1.6304348,-0.54347826)">
    <g
       id="g1010">
      <ellipse
         style="fill:#000000;stroke-width:0.75"
         id="path983"
         cx="1196.871"
         cy="798.91302"
         rx="79.165215"
         ry="78.396622" />
      <path
         style="fill:#000000;stroke-width:0.75"
         d="m 1195.3922,613.98453 -18.6742,112.33711 37.2188,0.004 z"
         id="path991"
         sodipodi:nodetypes="cccc" />
      <path
         style="fill:#000000;stroke-width:0.75"
         d="m 1197.2269,983.85625 -19.3109,-112.88426 37.2188,-0.004 z"
         id="path995"
         sodipodi:nodetypes="cccc" />
      <path
         style="fill:#000000;stroke-width:0.75"
         d="m 993.309,796.33282 129.3842,19.3109 v -37.2188 z"
         id="path997"
         sodipodi:nodetypes="cccc" />
      <path
         style="fill:#000000;stroke-width:0.75"
         d="m 1387.4155,797.41978 -117.5364,18.22394 v -37.2188 z"
         id="path999"
         sodipodi:nodetypes="cccc" />
    </g>
  </g>
  <circle
     id="path1152"
     style="fill:#000000;stroke:#000000;stroke-width:0.75"
     cx="1043.5588"
     cy="2075.0125"
     r="0.072549932" />
  <path
     style="fill:#000000;stroke-width:0.75"
     d="M 257.60869,1580.9783 Z"
     id="path1235" />
  <path
     style="fill:#000000;stroke-width:0.75"
     id="path1348"
     sodipodi:type="arc"
     sodipodi:cx="370.1087"
     sodipodi:cy="1383.1521"
     sodipodi:rx="5.978261"
     sodipodi:ry="9.239131"
     sodipodi:start="0"
     sodipodi:end="0.010049238"
     sodipodi:arc-type="slice"
     d="m 376.08696,1383.1521 a 5.978261,9.239131 0 0 1 -3e-4,0.093 l -5.97796,-0.093 z" />
  <path
     style="fill:#000000;stroke-width:0.75"
     d="m 195.99155,1504.9077 271.3138,496.5119 43.04128,-6.9173 c 0,0 -129.6595,-264.0124 -180.61966,-357.3965 -85.50675,-156.6904 -104.52884,-157.5617 -104.52884,-157.5617 z"
     id="path1378"
     sodipodi:nodetypes="cccscc" />
  <path
     style="fill:#000000;stroke-width:0.75"
     d="m 2212.0145,1515.668 -271.3138,496.5119 -43.0413,-6.9173 c 0,0 120.9638,-222.7081 155.6196,-285.6574 86.0883,-156.3717 129.5289,-229.3008 129.5289,-229.3008 z"
     id="path1380"
     sodipodi:nodetypes="cccscc" />
</svg>
