<?xml version="1.0" encoding="UTF-8" standalone="no"?>
<svg
   version="1.0"
   width="2400.000000pt"
   height="2400.000000pt"
   viewBox="0 0 2400.000000 2400.000000"
   preserveAspectRatio="xMidYMid meet"
   id="svg63"
   sodipodi:docname="Unreality Header Logo.svg"
   inkscape:version="1.2.2 (732a01da63, 2022-12-09)"
   xmlns:inkscape="http://www.inkscape.org/namespaces/inkscape"
   xmlns:sodipodi="http://sodipodi.sourceforge.net/DTD/sodipodi-0.dtd"
   xmlns="http://www.w3.org/2000/svg"
   xmlns:svg="http://www.w3.org/2000/svg">
  <defs
     id="defs67">
    <filter
       style="color-interpolation-filters:sRGB;"
       inkscape:label="Invert"
       id="filter68"
       x="0"
       y="0"
       width="1"
       height="1">
      <feColorMatrix
         type="hueRotate"
         values="180"
         result="color1"
         id="feColorMatrix64" />
      <feColorMatrix
         values="-1 0 0 0 1 0 -1 0 0 1 0 0 -1 0 1 -0.21 -0.72 -0.07 1 0 "
         result="color2"
         id="feColorMatrix66" />
    </filter>
  </defs>
  <sodipodi:namedview
     id="namedview65"
     pagecolor="#ffffff"
     bordercolor="#666666"
     borderopacity="1.0"
     inkscape:pageshadow="2"
     inkscape:pageopacity="0.0"
     inkscape:pagecheckerboard="0"
     inkscape:document-units="pt"
     showgrid="false"
     inkscape:zoom="0.1725"
     inkscape:cx="1594.2029"
     inkscape:cy="1605.7971"
     inkscape:window-width="1920"
     inkscape:window-height="1009"
     inkscape:window-x="-8"
     inkscape:window-y="-8"
     inkscape:window-maximized="1"
     inkscape:current-layer="svg63"
     inkscape:showpageshadow="2"
     inkscape:deskcolor="#d1d1d1" />
  <metadata
     id="metadata55">
Created by potrace 1.11, written by Peter Selinger 2001-2013
</metadata>
  <g
     transform="translate(0.000000,2400.000000) scale(0.100000,-0.100000)"
     fill="#000000"
     stroke="none"
     id="g61"
     style="filter:url(#filter68)">
    <path
       d="M8816 22953 c-3 -16 -73 -417 -156 -893 -82 -476 -153 -871 -157 -878 -5 -7 -73 -39 -153 -71 -1549 -625 -2944 -1665 -3986 -2971 -1080 -1354 -1787 -2968 -2039 -4650 -14 -96 -31 -186 -36 -199 -20 -49 -60 -433 -79 -765 -13 -230 -13 -808 0 -1051 12 -218 31 -422 62 -683 l22 -184 -40 -37 c-83 -78 -194 -180 -304 -281 -63 -58 -146 -134 -185 -170 -84 -79 -99 -92 -522 -484 -183 -168 -334 -310 -337 -315 -3 -4 122 -228 277 -497 155 -269 881 -1525 1612 -2791 731 -1267 1334 -2303 1340 -2303 6 0 85 27 176 61 90 33 286 105 434 159 880 322 1096 400 1104 400 6 0 36 -22 69 -49 183 -153 632 -469 927 -653 500 -312 1151 -630 1760 -858 1454 -545 3063 -737 4605 -550 823 100 1654 308 2395 600 99 39 189 72 200 74 54 9 374 155 690 314 513 260 962 538 1433 889 l193 143 52 -16 c29 -9 66 -20 82 -26 47 -15 503 -157 570 -177 116 -35 650 -202 675 -211 14 -5 72 -23 130 -40 58 -18 147 -45 198 -62 51 -16 97 -28 102 -26 12 4 3232 5579 3228 5588 -3 7 -195 169 -998 838 -201 168 -373 313 -384 322 -18 18 -18 21 2 167 111 782 124 1556 41 2373 -192 1889 -916 3661 -2105 5152 -762 956 -1725 1780 -2794 2391 -335 191 -801 420 -1137 557 -46 18 -85 41 -87 49 -3 9 -96 419 -206 911 -111 492 -204 903 -206 913 -5 16 -168 17 -3234 17 l-3228 0 -6 -27z m5928 -510 c8 -27 235 -999 316 -1353 39 -173 75 -328 79 -345 7 -28 18 -34 197 -103 394 -152 864 -370 1189 -552 1060 -592 1973 -1362 2720 -2290 1164 -1447 1863 -3202 2014 -5055 33 -401 39 -1112 11 -1445 -26 -320 -75 -695 -132 -1013 l-12 -67 44 -43 c25 -23 86 -76 135 -117 50 -41 95 -80 102 -86 6 -6 57 -49 114 -95 56 -46 145 -120 198 -164 53 -45 224 -188 381 -319 382 -320 355 -295 343 -315 -5 -9 -612 -1059 -1347 -2333 -804 -1393 -1344 -2318 -1352 -2318 -8 0 -88 22 -177 49 -89 27 -178 54 -197 59 -42 11 -449 134 -535 161 -33 11 -100 31 -150 46 -49 15 -99 31 -110 35 -11 5 -40 14 -65 20 -25 6 -54 15 -65 20 -11 5 -51 18 -90 28 -38 11 -125 37 -192 57 -121 37 -122 37 -147 19 -13 -11 -89 -71 -168 -135 -242 -196 -689 -519 -717 -519 -5 0 -50 -26 -98 -57 -467 -301 -1049 -599 -1582 -810 -902 -357 -1797 -559 -2816 -635 -223 -16 -967 -16 -1190 0 -1303 97 -2449 410 -3565 973 -578 291 -1182 679 -1635 1049 -38 32 -75 59 -82 61 -6 2 -55 42 -108 88 l-97 83 -47 -10 c-45 -10 -110 -32 -431 -152 -91 -34 -311 -115 -490 -180 -179 -65 -399 -146 -490 -179 -90 -34 -169 -61 -175 -61 -6 0 -617 1051 -1359 2336 l-1349 2336 34 30 c19 17 108 101 199 187 91 85 194 183 230 216 36 34 108 102 160 152 52 50 119 112 149 139 30 27 71 65 92 84 68 64 261 245 288 269 14 13 56 52 92 87 l67 64 -14 72 c-50 260 -105 734 -109 928 -1 80 -6 296 -10 480 -12 533 20 1039 100 1565 390 2571 1841 4857 4000 6300 631 423 1339 780 2020 1020 115 41 120 44 128 76 10 40 75 405 198 1114 50 286 93 530 96 543 l5 22 2698 0 c2562 0 2699 -1 2704 -17z"
       id="path57" />
  </g>
</svg>
